<svg width="512" height="512" viewBox="0 0 512 512" fill="none" xmlns="http://www.w3.org/2000/svg">
<g id="Logo">
<mask id="mask0" mask-type="alpha" maskUnits="userSpaceOnUse" x="0" y="0" width="512" height="512">
<rect id="Background" width="512" height="512" fill="white"/>
</mask>
<g mask="url(#mask0)">
<rect id="bg" width="512" height="512" fill="white"/>
<g id="Foreground Icon">
<g id="name">
<path id="Vector" d="M81 88.6328V96.2073H88.3554H95.7108V129.419V162.63H103.655H111.598V129.419V96.2073H118.954H126.309V88.6328V81.0583H103.655H81V88.6328Z" fill="#03155B"/>
<path id="Vector_2" d="M183.741 95.7412C174.738 118.523 167.383 137.284 162.322 150.511L157.673 162.63H165.735H173.855L177.268 154.181L180.681 145.733H197.275C209.809 145.733 213.986 145.908 214.457 146.432C214.751 146.84 216.281 150.685 217.87 154.88L220.753 162.63H228.756H236.759L232.699 152.259C230.463 146.607 227.991 140.081 227.226 137.867C226.461 135.595 221.224 121.961 215.516 107.569L205.278 81.3496L197.393 81.1748L189.566 81L183.741 95.7412ZM199.217 106.812C199.982 108.851 202.277 114.794 204.395 120.096C206.513 125.398 208.396 130.059 208.514 130.409C208.749 130.992 206.337 131.166 197.51 131.166C186.977 131.166 186.212 131.108 186.624 130.118C189.625 122.485 193.215 113.221 194.274 110.191C196.333 104.364 196.863 103.199 197.334 103.199C197.628 103.199 198.452 104.831 199.217 106.812Z" fill="#03155B"/>
<path id="Vector_3" d="M266.297 88.7493C272.946 101.509 282.008 118.931 284.244 123.417L286.363 127.554V145.092V162.63H294.012H301.662V145.208V127.729L304.84 121.727C306.546 118.406 309.782 112.289 311.96 108.152C314.137 103.957 317.785 97.023 320.08 92.7114C322.316 88.3997 324.552 84.3212 324.964 83.6802C326.729 81.1748 326.259 81 317.726 81.1748L309.724 81.3496L302.427 95.3333C298.426 103.024 294.895 109.55 294.66 109.783C294.365 110.074 290.658 103.724 286.363 95.6829L278.654 81.0583H270.416H262.237L266.297 88.7493Z" fill="#03155B"/>
<path id="Vector_4" d="M383.042 82.0488C382.866 82.6314 380.747 87.9336 378.452 93.8766C376.099 99.8197 371.215 112.405 367.566 121.844C363.918 131.283 358.916 144.334 356.386 150.802L351.855 162.63H359.858H367.861L371.156 154.298L374.392 146.024H391.339H408.286L409.345 148.646C409.875 150.103 411.346 153.832 412.581 156.92L414.759 162.63H422.879H430.999L428.822 157.211C427.587 154.298 425.468 148.821 424.115 145.15C420.878 136.702 412.052 114.153 404.696 95.6246L398.989 81.3496L391.221 81.1748C384.219 81.0583 383.395 81.1165 383.042 82.0488ZM393.281 106.52C393.987 108.385 396.282 114.444 398.4 119.98C400.519 125.515 402.284 130.292 402.284 130.584C402.284 130.933 397.871 131.166 391.398 131.166C384.631 131.166 380.512 130.933 380.512 130.584C380.512 130.292 382.16 126.039 384.101 121.145C386.102 116.251 388.162 110.89 388.75 109.317C390.574 104.306 391.045 103.199 391.516 103.199C391.81 103.199 392.575 104.714 393.281 106.52Z" fill="#03155B"/>
</g>
<g id="bolas">
<path id="Ellipse 1" d="M127.434 407.753C127.434 420.592 117.04 431 104.217 431C91.3947 431 81 420.592 81 407.753C81 394.914 91.3947 384.506 104.217 384.506C117.04 384.506 127.434 394.914 127.434 407.753Z" fill="#577AAB"/>
<path id="Ellipse 2" d="M127.434 206.331C127.434 219.17 117.04 229.578 104.217 229.578C91.3947 229.578 81 219.17 81 206.331C81 193.492 91.3947 183.084 104.217 183.084C117.04 183.084 127.434 193.492 127.434 206.331Z" fill="#577AAB"/>
<path id="Ellipse 3" d="M431 273.471C431 286.31 420.605 296.718 407.783 296.718C394.96 296.718 384.566 286.31 384.566 273.471C384.566 260.632 394.96 250.224 407.783 250.224C420.605 250.224 431 260.632 431 273.471Z" fill="#577AAB"/>
<path id="Ellipse 4" d="M355.108 407.753C355.108 420.592 344.714 431 331.891 431C319.069 431 308.674 420.592 308.674 407.753C308.674 394.914 319.069 384.506 331.891 384.506C344.714 384.506 355.108 394.914 355.108 407.753Z" fill="#577AAB"/>
<path id="Ellipse 5" d="M203.325 407.753C203.325 420.592 192.93 431 180.108 431C167.285 431 156.891 420.592 156.891 407.753C156.891 394.914 167.285 384.506 180.108 384.506C192.93 384.506 203.325 394.914 203.325 407.753Z" fill="#577AAB"/>
<path id="Ellipse 6" d="M279.218 407.753C279.218 420.592 268.823 431 256 431C243.178 431 232.783 420.592 232.783 407.753C232.783 394.914 243.178 384.506 256 384.506C268.823 384.506 279.218 394.914 279.218 407.753Z" fill="#577AAB"/>
<path id="Ellipse 7" d="M127.434 273.471C127.434 286.31 117.04 296.718 104.217 296.718C91.3947 296.718 81 286.31 81 273.471C81 260.632 91.3947 250.224 104.217 250.224C117.04 250.224 127.434 260.632 127.434 273.471Z" fill="#577AAB"/>
<path id="Ellipse 8" d="M127.434 340.612C127.434 353.451 117.04 363.859 104.217 363.859C91.3947 363.859 81 353.451 81 340.612C81 327.773 91.3947 317.365 104.217 317.365C117.04 317.365 127.434 327.773 127.434 340.612Z" fill="#577AAB"/>
<path id="Ellipse 10" d="M431 407.753C431 420.592 420.605 431 407.783 431C394.96 431 384.566 420.592 384.566 407.753C384.566 394.914 394.96 384.506 407.783 384.506C420.605 384.506 431 394.914 431 407.753Z" fill="#577AAB"/>
<path id="Ellipse 11" d="M279.218 340.612C279.218 353.451 268.823 363.859 256 363.859C243.178 363.859 232.783 353.451 232.783 340.612C232.783 327.773 243.178 317.365 256 317.365C268.823 317.365 279.218 327.773 279.218 340.612Z" fill="#577AAB"/>
<path id="Ellipse 12" d="M355.108 340.612C355.108 353.451 344.714 363.859 331.891 363.859C319.069 363.859 308.674 353.451 308.674 340.612C308.674 327.773 319.069 317.365 331.891 317.365C344.714 317.365 355.108 327.773 355.108 340.612Z" fill="#577AAB"/>
<path id="Ellipse 13" d="M203.325 340.612C203.325 353.451 192.93 363.859 180.108 363.859C167.285 363.859 156.891 353.451 156.891 340.612C156.891 327.773 167.285 317.365 180.108 317.365C192.93 317.365 203.325 327.773 203.325 340.612Z" fill="#577AAB"/>
<path id="Ellipse 16" d="M431 340.612C431 353.451 420.605 363.859 407.783 363.859C394.96 363.859 384.566 353.451 384.566 340.612C384.566 327.773 394.96 317.365 407.783 317.365C420.605 317.365 431 327.773 431 340.612Z" fill="#577AAB"/>
<path id="Ellipse 17" d="M279.218 273.471C279.218 286.31 268.823 296.718 256 296.718C243.178 296.718 232.783 286.31 232.783 273.471C232.783 260.632 243.178 250.224 256 250.224C268.823 250.224 279.218 260.632 279.218 273.471Z" fill="#577AAB"/>
<path id="Ellipse 18" d="M355.108 273.471C355.108 286.31 344.714 296.718 331.891 296.718C319.069 296.718 308.674 286.31 308.674 273.471C308.674 260.632 319.069 250.224 331.891 250.224C344.714 250.224 355.108 260.632 355.108 273.471Z" fill="#577AAB"/>
<path id="Ellipse 19" d="M203.325 273.471C203.325 286.31 192.93 296.718 180.108 296.718C167.285 296.718 156.891 286.31 156.891 273.471C156.891 260.632 167.285 250.224 180.108 250.224C192.93 250.224 203.325 260.632 203.325 273.471Z" fill="#577AAB"/>
<path id="Ellipse 20" d="M203.325 206.331C203.325 219.17 192.93 229.578 180.108 229.578C167.285 229.578 156.891 219.17 156.891 206.331C156.891 193.492 167.285 183.084 180.108 183.084C192.93 183.084 203.325 193.492 203.325 206.331Z" fill="#577AAB"/>
<path id="Ellipse 22" d="M431 206.331C431 219.17 420.605 229.578 407.783 229.578C394.96 229.578 384.566 219.17 384.566 206.331C384.566 193.492 394.96 183.084 407.783 183.084C420.605 183.084 431 193.492 431 206.331Z" fill="#577AAB"/>
<path id="Ellipse 23" d="M279.218 206.331C279.218 219.17 268.823 229.578 256 229.578C243.178 229.578 232.783 219.17 232.783 206.331C232.783 193.492 243.178 183.084 256 183.084C268.823 183.084 279.218 193.492 279.218 206.331Z" fill="#577AAB"/>
<path id="Ellipse 24" d="M355.108 206.331C355.108 219.17 344.714 229.578 331.891 229.578C319.069 229.578 308.674 219.17 308.674 206.331C308.674 193.492 319.069 183.084 331.891 183.084C344.714 183.084 355.108 193.492 355.108 206.331Z" fill="#577AAB"/>
</g>
</g>
</g>
</g>
</svg>
